<?xml version="1.0" standalone="no"?>
<!DOCTYPE svg PUBLIC "-//W3C//DTD SVG 20010904//EN"
 "http://www.w3.org/TR/2001/REC-SVG-20010904/DTD/svg10.dtd">
<svg version="1.0" xmlns="http://www.w3.org/2000/svg"
 width="381.000000pt" height="381.000000pt" viewBox="0 0 381.000000 381.000000"
 preserveAspectRatio="xMidYMid meet">
<metadata>
Created by potrace 1.14, written by Peter Selinger 2001-2017
</metadata>
<g transform="translate(0.000000,381.000000) scale(0.100000,-0.100000)"
fill="#000000" stroke="none">
<path d="M0 1905 l0 -1905 1905 0 1905 0 0 1905 0 1905 -1905 0 -1905 0 0
-1905z m1085 880 c214 -71 338 -216 369 -427 l7 -48 -114 0 -114 0 -6 54 c-19
188 -205 300 -443 266 -146 -20 -241 -95 -265 -207 -18 -90 9 -174 73 -228 49
-42 177 -98 316 -140 380 -113 533 -247 549 -485 20 -290 -211 -480 -584 -480
-243 0 -453 96 -563 255 -34 50 -67 143 -72 205 l-3 45 111 3 111 3 6 -50 c22
-183 192 -290 442 -278 216 10 330 103 329 267 -1 77 -25 131 -79 178 -54 48
-121 78 -318 143 -99 33 -213 75 -252 94 -197 94 -295 229 -295 405 0 229 167
401 438 450 26 5 99 7 162 6 92 -3 131 -9 195 -31z m886 -540 c114 -490 139
-607 165 -775 l7 -45 18 80 c11 44 96 353 191 688 l172 607 93 0 92 0 15 -52
c79 -275 318 -1153 331 -1214 10 -44 20 -82 24 -87 4 -4 15 41 24 99 13 78
201 932 272 1232 5 21 10 22 115 22 61 0 110 -3 110 -7 0 -5 -91 -385 -202
-845 l-203 -838 -102 0 c-88 0 -102 2 -107 18 -3 9 -79 280 -170 602 -154 548
-173 618 -191 695 -5 25 -12 9 -41 -100 -18 -72 -105 -373 -192 -670 l-159
-540 -103 0 -103 0 -198 820 c-109 451 -201 830 -204 843 l-6 23 113 -3 112
-3 127 -550z"/>
</g>
</svg>
